{"asset":{"version":"2.0","generator":"VECTARY"},"nodes":[{"translation":[0,0,0],"scale":[0.005000000000000002,0.004999999999999998,0.005],"rotation":[-0.7071067811865475,0,0,0.7071067811865476],"name":"donut","mesh":0},{"translation":[0.15092252658631689,0.28234460027583663,-0.646855757426227],"scale":[1,1,1],"rotation":[0.02137389853489957,-0.9758918932310358,-0.18602574482129597,-0.1121275677567587],"name":"Camera","camera":0}],"materials":[{"pbrMetallicRoughness":{"baseColorFactor":[1,1,1,1],"baseColorTexture":{"index":0,"extensions":{"KHR_texture_transform":{"offset":[0,0],"scale":[1,1],"rotation":0}},"texCoord":0},"metallicRoughnessTexture":{"index":2,"extensions":{"KHR_texture_transform":{"offset":[0,0],"scale":[1,1],"rotation":0}},"texCoord":0},"metallicFactor":1,"roughnessFactor":1},"name":"Material 2","normalTexture":{"index":1,"scale":1.1,"extensions":{"KHR_texture_transform":{"offset":[0,0],"scale":[1,1],"rotation":0}},"texCoord":0},"emissiveFactor":[0,0,0],"occlusionTexture":{"index":3,"strength":1,"extensions":{"KHR_texture_transform":{"offset":[0,0],"scale":[1,1],"rotation":0}},"texCoord":1},"alphaMode":"OPAQUE","doubleSided":false}],"textures":[{"sampler":0,"source":0},{"sampler":0,"source":1},{"sampler":0,"source":2},{"sampler":0,"source":3}],"images":[{"uri":"data:application/octet-stream;base64,","mimeType":"image/jpeg"},{"uri":"data:application/octet-stream;base64,","mimeType":"image/jpeg"},{"uri":"data:application/octet-stream;base64,","mimeType":"image/jpeg"},{"uri":"data:application/octet-stream;base64,","mimeType":"image/jpeg"}],"samplers":[{"wrapS":10497,"wrapT":10497}],"meshes":[{"primitives":[{"mode":4,"attributes":{"POSITION":1,"NORMAL":2,"TEXCOORD_0":3,"TEXCOORD_1":4},"material":0,"indices":0}]}],"accessors":[{"bufferView":0,"byteOffset":0,"componentType":5125,"count":57438,"type":"SCALAR"},{"bufferView":1,"byteOffset":0,"componentType":5126,"count":26230,"max":[10.19337272644043,10.696008682250977,8.254538536071777],"min":[-10.19337272644043,-10.696008682250977,0],"type":"VEC3"},{"bufferView":2,"byteOffset":0,"componentType":5126,"count":26230,"type":"VEC3"},{"bufferView":3,"byteOffset":0,"componentType":5126,"count":26230,"type":"VEC2"},{"bufferView":4,"byteOffset":0,"componentType":5126,"count":26230,"type":"VEC2"}],"bufferViews":[{"buffer":0,"byteOffset":0,"byteLength":229752,"target":34963},{"buffer":0,"byteOffset":229752,"byteLength":314760,"target":34962},{"buffer":0,"byteOffset":544512,"byteLength":314760,"target":34962},{"buffer":0,"byteOffset":859272,"byteLength":209840,"target":34962},{"buffer":0,"byteOffset":1069112,"byteLength":209840,"target":34962}],"cameras":[{"name":"Camera","type":"perspective","extras":{"targetDistance":0.714},"perspective":{"aspectRatio":1.2950558213716108,"yfov":0.6108652381980153,"zfar":47.0967096709671,"znear":0.012139213921392139}}],"scene":0,"scenes":[{"nodes":[0,1],"name":"Project Name"}],"extensionsUsed":["KHR_texture_transform"],"buffers":[{"byteLength":1278952,"uri":"data:application/octet-stream;base64,"}]}